<svg width="43" height="51" viewBox="0 0 43 51" fill="ffffff" xmlns="http://www.w3.org/2000/svg">
<g clip-path="url(#clip0_1_3)">
<path d="M2.83 7.19L3.2 7.08C5.64 6.56 7 7.52 8.26 9.77C12.32 17.24 16.65 24.56 20.87 31.94C21.02 32.2 21.21 32.44 21.62 33.05V31.33C21.62 25.59 21.68 19.85 21.57 14.11C21.57 12.63 22.08 12.11 23.4 12.11H25.32V40.76C24.2446 40.835 23.1654 40.835 22.09 40.76C21.67 40.7 21.25 40.11 20.99 39.67C16.4833 32.11 11.9867 24.5533 7.5 17L6.65 15.59V40.73H0C0 40.64 0 40.49 0.06 40.48C2.37 40 2.94 38.56 2.9 36.2C2.73 27.09 2.83 18 2.83 8.85V7.19Z" fill="#ffffff"/>
<path d="M26.59 21.64V18C32 17.31 39 22.5 41.27 28.83C42.5272 32.4203 42.5271 36.3313 41.2698 39.9216C40.0124 43.5119 37.5725 46.5684 34.35 48.59C28.35 52.41 18.83 51.75 13.5 46.19C8.44 40.91 7.11 32.3 10.79 26.52C11.56 27.84 12.32 29.09 13.01 30.38C13.1137 30.7223 13.1137 31.0877 13.01 31.43C12.4002 33.9406 12.5608 36.5766 13.4708 38.9946C14.3807 41.4126 15.9979 43.5005 18.1115 44.9862C20.2252 46.4718 22.7373 47.2864 25.3206 47.3238C27.9039 47.3612 30.4385 46.6196 32.5943 45.1957C34.7501 43.7719 36.427 41.7317 37.4065 39.341C38.3861 36.9503 38.6228 34.3201 38.086 31.7929C37.5491 29.2657 36.2635 26.9589 34.3967 25.1729C32.5299 23.3869 30.1684 22.2046 27.62 21.78C27.31 21.73 27 21.7 26.59 21.64Z" fill="#ffffff"/>
<path d="M29.86 6.53C29.8805 6.99497 29.8058 7.45922 29.6406 7.89433C29.4753 8.32943 29.2231 8.72624 28.8991 9.06045C28.5752 9.39466 28.1865 9.65924 27.7568 9.83799C27.3271 10.0167 26.8654 10.1059 26.4 10.1C24.88 10.16 23.4 10.1 21.82 10.1C21.0283 10.0686 20.2463 10.2835 19.5818 10.7152C18.9174 11.1468 18.4031 11.7739 18.11 12.51C17.8492 13.2564 17.8214 14.0645 18.0303 14.8271C18.2393 15.5897 18.6751 16.2708 19.28 16.78C19.6678 17.1423 19.9216 17.6251 20 18.15C20.1 19.15 20 20.15 20 21.15C18.3094 20.9784 16.7334 20.2167 15.5484 18.9989C14.3634 17.781 13.6453 16.1846 13.52 14.49C13.29 10.59 15.71 7 19.36 6.6C22.8566 6.40157 26.361 6.37821 29.86 6.53Z" fill="#ffffff"/>
<path d="M25.11 4.37H21.67V0.06C23.78 -0.38 25.44 1.63 25.11 4.37Z" fill="#ffffff"/>
</g>
<defs>
<clipPath id="clip0_1_3">
<rect width="42.24" height="51" fill="white"/>
</clipPath>
</defs>
</svg>
